<mxfile host="app.diagrams.net" modified="2021-02-03T17:20:19.710Z" agent="5.0 (Windows)" etag="KhhmA26Co4CppDZ32BDR" version="13.10.0" type="github">
  <diagram id="R2lEEEUBdFMjLlhIrx00" name="Page-1">
    <mxGraphModel dx="1185" dy="636" grid="1" gridSize="10" guides="1" tooltips="1" connect="1" arrows="1" fold="1" page="1" pageScale="1" pageWidth="850" pageHeight="1100" math="0" shadow="0" extFonts="Permanent Marker^https://fonts.googleapis.com/css?family=Permanent+Marker">
      <root>
        <mxCell id="0" />
        <mxCell id="1" parent="0" />
        <mxCell id="C-vyLk0tnHw3VtMMgP7b-23" value="Store" style="shape=table;startSize=30;container=1;collapsible=1;childLayout=tableLayout;fixedRows=1;rowLines=0;fontStyle=1;align=center;resizeLast=1;" parent="1" vertex="1">
          <mxGeometry x="10" y="60" width="140" height="100" as="geometry" />
        </mxCell>
        <mxCell id="C-vyLk0tnHw3VtMMgP7b-27" value="" style="shape=partialRectangle;collapsible=0;dropTarget=0;pointerEvents=0;fillColor=none;points=[[0,0.5],[1,0.5]];portConstraint=eastwest;top=0;left=0;right=0;bottom=0;" parent="C-vyLk0tnHw3VtMMgP7b-23" vertex="1">
          <mxGeometry y="30" width="140" height="30" as="geometry" />
        </mxCell>
        <mxCell id="C-vyLk0tnHw3VtMMgP7b-29" value="STORE_CODE (PK)" style="shape=partialRectangle;overflow=hidden;connectable=0;fillColor=none;top=0;left=0;bottom=0;right=0;align=left;spacingLeft=6;" parent="C-vyLk0tnHw3VtMMgP7b-27" vertex="1">
          <mxGeometry width="140" height="30" as="geometry" />
        </mxCell>
        <mxCell id="g9_w8w9tPlThV2ScWlcl-8" style="shape=partialRectangle;collapsible=0;dropTarget=0;pointerEvents=0;fillColor=none;points=[[0,0.5],[1,0.5]];portConstraint=eastwest;top=0;left=0;right=0;bottom=0;" vertex="1" parent="C-vyLk0tnHw3VtMMgP7b-23">
          <mxGeometry y="60" width="140" height="30" as="geometry" />
        </mxCell>
        <mxCell id="g9_w8w9tPlThV2ScWlcl-9" value="REGION_CODE (FK)" style="shape=partialRectangle;overflow=hidden;connectable=0;fillColor=none;top=0;left=0;bottom=0;right=0;align=left;spacingLeft=6;" vertex="1" parent="g9_w8w9tPlThV2ScWlcl-8">
          <mxGeometry width="140" height="30" as="geometry" />
        </mxCell>
        <mxCell id="g9_w8w9tPlThV2ScWlcl-1" value="Region" style="shape=table;startSize=30;container=1;collapsible=1;childLayout=tableLayout;fixedRows=1;rowLines=0;fontStyle=1;align=center;resizeLast=1;" vertex="1" parent="1">
          <mxGeometry x="390" y="90" width="130" height="70" as="geometry" />
        </mxCell>
        <mxCell id="g9_w8w9tPlThV2ScWlcl-2" value="" style="shape=partialRectangle;collapsible=0;dropTarget=0;pointerEvents=0;fillColor=none;points=[[0,0.5],[1,0.5]];portConstraint=eastwest;top=0;left=0;right=0;bottom=0;" vertex="1" parent="g9_w8w9tPlThV2ScWlcl-1">
          <mxGeometry y="30" width="130" height="30" as="geometry" />
        </mxCell>
        <mxCell id="g9_w8w9tPlThV2ScWlcl-3" value="REGION_CODE (PK)" style="shape=partialRectangle;overflow=hidden;connectable=0;fillColor=none;top=0;left=0;bottom=0;right=0;align=left;spacingLeft=6;" vertex="1" parent="g9_w8w9tPlThV2ScWlcl-2">
          <mxGeometry width="130" height="30" as="geometry" />
        </mxCell>
        <mxCell id="g9_w8w9tPlThV2ScWlcl-17" style="edgeStyle=orthogonalEdgeStyle;rounded=0;orthogonalLoop=1;jettySize=auto;html=1;entryX=0;entryY=0.5;entryDx=0;entryDy=0;" edge="1" parent="1" source="g9_w8w9tPlThV2ScWlcl-8" target="g9_w8w9tPlThV2ScWlcl-2">
          <mxGeometry relative="1" as="geometry" />
        </mxCell>
        <mxCell id="g9_w8w9tPlThV2ScWlcl-18" value="Store Region Relational Schema" style="text;html=1;strokeColor=none;fillColor=none;align=center;verticalAlign=middle;whiteSpace=wrap;rounded=0;fontSize=14;" vertex="1" parent="1">
          <mxGeometry x="20" y="20" width="220" height="20" as="geometry" />
        </mxCell>
        <mxCell id="g9_w8w9tPlThV2ScWlcl-31" style="edgeStyle=orthogonalEdgeStyle;rounded=0;orthogonalLoop=1;jettySize=auto;html=1;fontSize=14;" edge="1" parent="1" source="g9_w8w9tPlThV2ScWlcl-19" target="g9_w8w9tPlThV2ScWlcl-29">
          <mxGeometry relative="1" as="geometry">
            <mxPoint x="330" y="280.0000000000001" as="targetPoint" />
          </mxGeometry>
        </mxCell>
        <mxCell id="g9_w8w9tPlThV2ScWlcl-19" value="Store" style="shape=table;startSize=30;container=1;collapsible=1;childLayout=tableLayout;fixedRows=1;rowLines=0;fontStyle=1;align=center;resizeLast=1;" vertex="1" parent="1">
          <mxGeometry x="10" y="240" width="140" height="100" as="geometry" />
        </mxCell>
        <mxCell id="g9_w8w9tPlThV2ScWlcl-20" value="" style="shape=partialRectangle;collapsible=0;dropTarget=0;pointerEvents=0;fillColor=none;points=[[0,0.5],[1,0.5]];portConstraint=eastwest;top=0;left=0;right=0;bottom=0;" vertex="1" parent="g9_w8w9tPlThV2ScWlcl-19">
          <mxGeometry y="30" width="140" height="30" as="geometry" />
        </mxCell>
        <mxCell id="g9_w8w9tPlThV2ScWlcl-21" value="STORE_CODE (PK)" style="shape=partialRectangle;overflow=hidden;connectable=0;fillColor=none;top=0;left=0;bottom=0;right=0;align=left;spacingLeft=6;" vertex="1" parent="g9_w8w9tPlThV2ScWlcl-20">
          <mxGeometry width="140" height="30" as="geometry" />
        </mxCell>
        <mxCell id="g9_w8w9tPlThV2ScWlcl-22" style="shape=partialRectangle;collapsible=0;dropTarget=0;pointerEvents=0;fillColor=none;points=[[0,0.5],[1,0.5]];portConstraint=eastwest;top=0;left=0;right=0;bottom=0;" vertex="1" parent="g9_w8w9tPlThV2ScWlcl-19">
          <mxGeometry y="60" width="140" height="30" as="geometry" />
        </mxCell>
        <mxCell id="g9_w8w9tPlThV2ScWlcl-23" value="EMP_CODE (FK)" style="shape=partialRectangle;overflow=hidden;connectable=0;fillColor=none;top=0;left=0;bottom=0;right=0;align=left;spacingLeft=6;" vertex="1" parent="g9_w8w9tPlThV2ScWlcl-22">
          <mxGeometry width="140" height="30" as="geometry" />
        </mxCell>
        <mxCell id="g9_w8w9tPlThV2ScWlcl-24" value="Employee" style="shape=table;startSize=30;container=1;collapsible=1;childLayout=tableLayout;fixedRows=1;rowLines=0;fontStyle=1;align=center;resizeLast=1;" vertex="1" parent="1">
          <mxGeometry x="390" y="270" width="130" height="100" as="geometry" />
        </mxCell>
        <mxCell id="g9_w8w9tPlThV2ScWlcl-25" value="" style="shape=partialRectangle;collapsible=0;dropTarget=0;pointerEvents=0;fillColor=none;points=[[0,0.5],[1,0.5]];portConstraint=eastwest;top=0;left=0;right=0;bottom=0;" vertex="1" parent="g9_w8w9tPlThV2ScWlcl-24">
          <mxGeometry y="30" width="130" height="30" as="geometry" />
        </mxCell>
        <mxCell id="g9_w8w9tPlThV2ScWlcl-26" value="EMP_CODE (PK)" style="shape=partialRectangle;overflow=hidden;connectable=0;fillColor=none;top=0;left=0;bottom=0;right=0;align=left;spacingLeft=6;" vertex="1" parent="g9_w8w9tPlThV2ScWlcl-25">
          <mxGeometry width="130" height="30" as="geometry" />
        </mxCell>
        <mxCell id="g9_w8w9tPlThV2ScWlcl-29" style="shape=partialRectangle;collapsible=0;dropTarget=0;pointerEvents=0;fillColor=none;points=[[0,0.5],[1,0.5]];portConstraint=eastwest;top=0;left=0;right=0;bottom=0;" vertex="1" parent="g9_w8w9tPlThV2ScWlcl-24">
          <mxGeometry y="60" width="130" height="30" as="geometry" />
        </mxCell>
        <mxCell id="g9_w8w9tPlThV2ScWlcl-30" value="STORE_CODE (FK)" style="shape=partialRectangle;overflow=hidden;connectable=0;fillColor=none;top=0;left=0;bottom=0;right=0;align=left;spacingLeft=6;" vertex="1" parent="g9_w8w9tPlThV2ScWlcl-29">
          <mxGeometry width="130" height="30" as="geometry" />
        </mxCell>
        <mxCell id="g9_w8w9tPlThV2ScWlcl-28" value="Store Employee Relational Schema" style="text;html=1;strokeColor=none;fillColor=none;align=center;verticalAlign=middle;whiteSpace=wrap;rounded=0;fontSize=14;" vertex="1" parent="1">
          <mxGeometry x="20" y="200" width="300" height="20" as="geometry" />
        </mxCell>
        <mxCell id="g9_w8w9tPlThV2ScWlcl-32" style="edgeStyle=orthogonalEdgeStyle;rounded=0;orthogonalLoop=1;jettySize=auto;html=1;entryX=1;entryY=0.5;entryDx=0;entryDy=0;fontSize=14;fillColor=#d80073;strokeColor=#A50040;" edge="1" parent="1" source="g9_w8w9tPlThV2ScWlcl-25" target="g9_w8w9tPlThV2ScWlcl-22">
          <mxGeometry relative="1" as="geometry" />
        </mxCell>
      </root>
    </mxGraphModel>
  </diagram>
</mxfile>
